<?xml version="1.0" encoding="utf-8"?>
<!-- Generator: Adobe Illustrator 23.0.6, SVG Export Plug-In . SVG Version: 6.00 Build 0)  -->
<svg version="1.1" id="Layer_1" xmlns="http://www.w3.org/2000/svg" xmlns:xlink="http://www.w3.org/1999/xlink" x="0px" y="0px"
	 viewBox="0 0 1280 1024" style="enable-background:new 0 0 1280 1024;" xml:space="preserve">
<style type="text/css">
	.st0{opacity:0.5;}
	.st1{fill:#269CFF;}
	.st2{fill:url(#SVGID_1_);}
	.st3{fill:url(#SVGID_2_);}
	.st4{fill:url(#SVGID_3_);}
	.st5{fill:url(#SVGID_4_);}
</style>
<g class="st0">
	<path class="st1" d="M742,115.3v829.4c0,31.1-25.2,56.3-56.3,56.3H453.3c-31.1,0-56.3-25.2-56.3-56.3V115.3c0-1.3,0-2.6,0.1-3.9
		c0.2-2.8,0.6-5.5,1.2-8.1c10.4-25,83.1-44.3,171.2-44.3s160.8,19.3,171.2,44.3c0.6,2.6,1,5.4,1.2,8.1C742,112.7,742,114,742,115.3z
		"/>
	<linearGradient id="SVGID_1_" gradientUnits="userSpaceOnUse" x1="397" y1="530" x2="742" y2="530">
		<stop  offset="0" style="stop-color:#CCE0F4"/>
		<stop  offset="6.405089e-02" style="stop-color:#C3DCF2"/>
		<stop  offset="0.1706" style="stop-color:#A9D2EE"/>
		<stop  offset="0.3066" style="stop-color:#80C2E7"/>
		<stop  offset="0.4649" style="stop-color:#47ACDE"/>
		<stop  offset="0.5674" style="stop-color:#1E9CD7"/>
		<stop  offset="0.8652" style="stop-color:#0075BE"/>
		<stop  offset="0.9944" style="stop-color:#005B97"/>
	</linearGradient>
	<path class="st2" d="M569.5,60c42.3,0,83,4.5,114.5,12.8c31,8.1,50.8,19,55.8,30.9c0.6,2.5,0.9,5.2,1.1,7.9
		c0.1,1.2,0.1,2.5,0.1,3.8v829.4c0,30.5-24.8,55.3-55.3,55.3H453.3c-30.5,0-55.3-24.8-55.3-55.3V115.3c0-1.3,0-2.6,0.1-3.8
		c0.2-2.7,0.6-5.4,1.1-7.9c5-11.8,24.8-22.8,55.8-30.9C486.5,64.5,527.2,60,569.5,60 M569.5,59c-88.1,0-160.8,19.3-171.2,44.3
		c-0.6,2.6-1,5.3-1.1,8.1c-0.1,1.3-0.1,2.6-0.1,3.9v829.4c0,31.1,25.2,56.3,56.3,56.3h232.4c31.1,0,56.3-25.2,56.3-56.3V115.3
		c0-1.3,0-2.6-0.1-3.9c-0.2-2.8-0.6-5.5-1.2-8.1C730.3,78.3,657.6,59,569.5,59L569.5,59z"/>
</g>
<g class="st0">
	<path class="st1" d="M742,109.5c0,0.6,0,1.3-0.1,2c-3.5,27-79.3,48.5-172.4,48.5s-168.9-21.6-172.4-48.5c-0.1-0.7-0.1-1.3-0.1-2
		c0-2.1,0.4-4.2,1.3-6.2c10.4-25,83.1-44.3,171.2-44.3s160.8,19.3,171.2,44.3C741.6,105.3,742,107.4,742,109.5z"/>
	<linearGradient id="SVGID_2_" gradientUnits="userSpaceOnUse" x1="397" y1="109.5" x2="742" y2="109.5">
		<stop  offset="0" style="stop-color:#CCE0F4"/>
		<stop  offset="6.405089e-02" style="stop-color:#C3DCF2"/>
		<stop  offset="0.1706" style="stop-color:#A9D2EE"/>
		<stop  offset="0.3066" style="stop-color:#80C2E7"/>
		<stop  offset="0.4649" style="stop-color:#47ACDE"/>
		<stop  offset="0.5674" style="stop-color:#1E9CD7"/>
		<stop  offset="0.8652" style="stop-color:#0075BE"/>
		<stop  offset="0.9944" style="stop-color:#005B97"/>
	</linearGradient>
	<path class="st3" d="M569.5,60c42.3,0,83,4.5,114.5,12.8c31,8.1,50.9,19.1,55.8,31c0.8,1.9,1.2,3.8,1.2,5.8c0,0.6,0,1.2-0.1,1.8
		c-1.6,12.7-20.1,24.6-51.9,33.6C656.8,154,614.3,159,569.5,159s-87.3-5-119.5-14.1c-31.8-9-50.2-20.9-51.9-33.6
		c-0.1-0.6-0.1-1.2-0.1-1.8c0-1.9,0.4-3.9,1.2-5.8c4.9-11.9,24.7-22.8,55.8-30.9C486.5,64.5,527.2,60,569.5,60 M569.5,59
		c-88.1,0-160.8,19.3-171.2,44.3c-0.9,2-1.3,4.1-1.3,6.2c0,0.6,0,1.3,0.1,1.9c3.5,27,79.3,48.6,172.4,48.6s168.9-21.6,172.4-48.6
		c0.1-0.6,0.1-1.3,0.1-1.9c0-2.1-0.4-4.2-1.3-6.2C730.3,78.3,657.6,59,569.5,59L569.5,59z"/>
</g>
<image style="overflow:visible;" width="1250" height="1251" xlink:href="../images/liveciclelogo.png"  transform="matrix(8.000000e-02 0 0 7.993605e-02 519 455)">
</image>
<g class="st0">
	<linearGradient id="SVGID_3_" gradientUnits="userSpaceOnUse" x1="419" y1="110" x2="718" y2="110">
		<stop  offset="0" style="stop-color:#FFFFFF"/>
		<stop  offset="0.4542" style="stop-color:#858585"/>
		<stop  offset="0.8316" style="stop-color:#262626"/>
		<stop  offset="1" style="stop-color:#000000"/>
	</linearGradient>
	<path class="st4" d="M718,110c0,0.5,0,1.1-0.1,1.6c-3,21.9-68.8,39.4-149.4,39.4s-146.4-17.5-149.4-39.4c-0.1-0.5-0.1-1.1-0.1-1.6
		c0-1.7,0.4-3.4,1.1-5c9-20.3,72-36,148.4-36s139.4,15.7,148.4,36C717.6,106.6,718,108.3,718,110z"/>
	<linearGradient id="SVGID_4_" gradientUnits="userSpaceOnUse" x1="419" y1="110" x2="718" y2="110">
		<stop  offset="0" style="stop-color:#CCE0F4"/>
		<stop  offset="6.405089e-02" style="stop-color:#C3DCF2"/>
		<stop  offset="0.1706" style="stop-color:#A9D2EE"/>
		<stop  offset="0.3066" style="stop-color:#80C2E7"/>
		<stop  offset="0.4649" style="stop-color:#47ACDE"/>
		<stop  offset="0.5674" style="stop-color:#1E9CD7"/>
		<stop  offset="0.8652" style="stop-color:#0075BE"/>
		<stop  offset="0.9944" style="stop-color:#005B97"/>
	</linearGradient>
	<path class="st5" d="M568.5,70c36.7,0,71.9,3.7,99.2,10.4c26.9,6.6,44,15.5,48.3,25c0.7,1.5,1,3.1,1,4.6c0,0.5,0,1-0.1,1.4
		c-1.4,10-17.7,19.9-44.9,27.1c-27.9,7.4-64.7,11.5-103.5,11.5s-75.6-4.1-103.5-11.5c-27.1-7.2-43.5-17.1-44.9-27.1
		c-0.1-0.5-0.1-0.9-0.1-1.4c0-1.5,0.3-3.1,1-4.6c4.3-9.6,21.4-18.5,48.3-25C496.6,73.7,531.8,70,568.5,70 M568.5,69
		c-76.4,0-139.4,15.7-148.4,36c-0.7,1.6-1.1,3.3-1.1,5c0,0.5,0,1.1,0.1,1.6c3,21.9,68.8,39.4,149.4,39.4s146.4-17.5,149.4-39.4
		c0.1-0.5,0.1-1.1,0.1-1.6c0-1.7-0.4-3.4-1.1-5C707.9,84.7,644.9,69,568.5,69L568.5,69z"/>
</g>
</svg>
