<?xml version="1.0" encoding="utf-8"?>
<!-- Generator: Adobe Illustrator 23.0.6, SVG Export Plug-In . SVG Version: 6.00 Build 0)  -->
<svg version="1.1" id="Layer_1" xmlns="http://www.w3.org/2000/svg" xmlns:xlink="http://www.w3.org/1999/xlink" x="0px" y="0px"
	 viewBox="0 0 64 64" style="enable-background:new 0 0 64 64;" xml:space="preserve">
<style type="text/css">
	.st0{opacity:0.84;fill:#4AABFF;stroke:#000000;stroke-width:0.5;stroke-miterlimit:10;enable-background:new    ;}
	.st1{fill:#269CFF;stroke:#000000;stroke-width:0.25;stroke-miterlimit:10;}
	.st2{fill:url(#SVGID_1_);}
	.st3{fill:#FFFFFF;}
	.st4{fill:#1F1F1F;}
</style>
<ellipse class="st0" cx="32" cy="52.5" rx="30" ry="4"/>
<path class="st1" d="M16.1,18C17.5,30.9,32,36.8,32,52c0-15.2,14.5-21.1,15.9-34c1-8.8-5.3-16.7-14.1-17.7S17.1,5.7,16.1,14.5
	C16,15,16,15.5,16,16C16,16.7,16,17.3,16.1,18z M32,12c2.2,0,4,1.8,4,4s-1.8,4-4,4s-4-1.8-4-4S29.8,12,32,12z"/>
<g>
	<g>
		
			<radialGradient id="SVGID_1_" cx="13062.7598" cy="-9612.2998" r="300" gradientTransform="matrix(5.330000e-02 0 0 -5.330000e-02 -664.3211 -496.3746)" gradientUnits="userSpaceOnUse">
			<stop  offset="0.755" style="stop-color:#269CFF;stop-opacity:0.87"/>
			<stop  offset="0.7787" style="stop-color:#2D9FFF;stop-opacity:0.7857"/>
			<stop  offset="0.8145" style="stop-color:#42A9FF;stop-opacity:0.6589"/>
			<stop  offset="0.8577" style="stop-color:#64B8FF;stop-opacity:0.5052"/>
			<stop  offset="0.9069" style="stop-color:#93CEFF;stop-opacity:0.3306"/>
			<stop  offset="0.9603" style="stop-color:#CEE9FF;stop-opacity:0.141"/>
			<stop  offset="1" style="stop-color:#FFFFFF;stop-opacity:0"/>
		</radialGradient>
		<circle class="st2" cx="32" cy="16" r="16"/>
	</g>
	<g>
		<circle class="st3" cx="32" cy="15.9" r="10.7"/>
	</g>
	<g>
		<g>
			<path class="st4" d="M24.7,16.3c0,0.1-0.2,0.7-0.2,0.8H22V17c0.5,0,0.5-0.1,0.5-0.5v-1.9c0-0.4,0-0.4-0.5-0.5v-0.1h1.5v0.1
				c-0.4,0-0.5,0.1-0.5,0.5v2c0,0.3,0,0.4,0.4,0.4c0,0,0.4,0,0.4,0c0.3,0,0.4,0,0.5-0.1c0.1-0.1,0.2-0.3,0.3-0.5L24.7,16.3z"/>
			<path class="st4" d="M25,17.1V17c0.3,0,0.4,0,0.4-0.4v-1c0-0.3,0-0.3-0.3-0.4v-0.1c0.3,0,0.5-0.1,0.8-0.2c0,0.2,0,0.4,0,0.6v1.1
				c0,0.3,0,0.4,0.4,0.4v0.1H25z M25.6,14.4c-0.1,0-0.3-0.1-0.3-0.3c0-0.2,0.1-0.3,0.3-0.3c0.1,0,0.3,0.1,0.3,0.3
				C25.9,14.3,25.8,14.4,25.6,14.4z"/>
			<path class="st4" d="M28.9,15.1c-0.3,0-0.3,0.1-0.5,0.4c-0.2,0.4-0.5,1.1-0.8,1.7h-0.2c-0.2-0.6-0.5-1.1-0.8-1.7
				c-0.1-0.3-0.2-0.3-0.5-0.4V15h1.1v0.1c-0.3,0-0.3,0.1-0.2,0.3c0.1,0.3,0.4,0.9,0.5,1.2c0.2-0.4,0.4-0.8,0.5-1.1
				c0.1-0.2,0.1-0.3-0.3-0.3V15h1L28.9,15.1L28.9,15.1z"/>
			<path class="st4" d="M31,16.7c-0.4,0.4-0.7,0.5-0.9,0.5c-0.7,0-1.1-0.5-1.1-1.1c0-0.3,0.1-0.6,0.4-0.9c0.2-0.2,0.5-0.4,0.8-0.4
				c0.5,0,0.8,0.4,0.8,0.8c0,0.1,0,0.1-0.1,0.2c-0.1,0-0.8,0.1-1.5,0.1c0,0.7,0.4,0.9,0.8,0.9c0.2,0,0.4-0.1,0.6-0.2L31,16.7z
				 M30,15.1c-0.2,0-0.5,0.2-0.6,0.6c0.3,0,0.6,0,0.9,0c0.1,0,0.1,0,0.1-0.1C30.5,15.3,30.4,15.1,30,15.1z"/>
			<path class="st4" d="M34.7,16.3c-0.1,0.2-0.2,0.6-0.3,0.7c-0.2,0-0.6,0.1-1,0.1c-1.3,0-2-0.8-2-1.6c0-1,0.8-1.7,2.1-1.7
				c0.5,0,0.8,0.1,1,0.1c0,0.2,0.1,0.5,0.1,0.8l-0.2,0c-0.1-0.3-0.2-0.5-0.5-0.6C33.8,14,33.5,14,33.3,14c-0.9,0-1.4,0.6-1.4,1.4
				c0,0.9,0.5,1.6,1.4,1.6c0.5,0,0.8-0.2,1.1-0.7L34.7,16.3z"/>
			<path class="st4" d="M35.1,17.1V17c0.3,0,0.4,0,0.4-0.4v-1c0-0.3,0-0.3-0.3-0.4v-0.1c0.3,0,0.5-0.1,0.8-0.2c0,0.2,0,0.4,0,0.6
				v1.1c0,0.3,0,0.4,0.4,0.4v0.1H35.1z M35.7,14.4c-0.2,0-0.3-0.1-0.3-0.3c0-0.2,0.1-0.3,0.3-0.3s0.3,0.1,0.3,0.3
				C35.9,14.3,35.8,14.4,35.7,14.4z"/>
			<path class="st4" d="M38.6,16.7c-0.2,0.3-0.6,0.5-0.9,0.5c-0.7,0-1.1-0.5-1.1-1c0-0.4,0.2-0.7,0.5-1c0.3-0.2,0.6-0.3,0.8-0.3
				c0.2,0,0.4,0.1,0.5,0.1c0.1,0.1,0.1,0.1,0.1,0.1c0,0.1-0.1,0.2-0.2,0.2c0,0,0,0-0.1-0.1c-0.2-0.1-0.3-0.2-0.5-0.2
				c-0.4,0-0.7,0.3-0.7,0.8c0,0.7,0.5,0.9,0.8,0.9c0.2,0,0.4,0,0.7-0.3L38.6,16.7z"/>
			<path class="st4" d="M38.8,17.1V17c0.3,0,0.4,0,0.4-0.4v-2.4c0-0.3,0-0.3-0.4-0.4v-0.1c0.3,0,0.6-0.1,0.8-0.2c0,0.2,0,0.5,0,0.7
				v2.3c0,0.3,0,0.4,0.4,0.4v0.1H38.8z"/>
			<path class="st4" d="M42.3,16.7c-0.3,0.4-0.7,0.5-0.9,0.5c-0.7,0-1.1-0.5-1.1-1.1c0-0.3,0.1-0.6,0.3-0.9c0.2-0.2,0.5-0.4,0.8-0.4
				c0.5,0,0.8,0.4,0.8,0.8c0,0.1,0,0.1-0.1,0.2c-0.1,0-0.8,0.1-1.5,0.1c0,0.7,0.4,0.9,0.8,0.9c0.2,0,0.4-0.1,0.6-0.2L42.3,16.7z
				 M41.4,15.1c-0.2,0-0.5,0.2-0.6,0.6c0.3,0,0.6,0,0.9,0c0.1,0,0.1,0,0.1-0.1C41.9,15.3,41.7,15.1,41.4,15.1z"/>
		</g>
	</g>
</g>
</svg>
