<?xml version="1.0" encoding="utf-8"?>
<!-- Generator: Adobe Illustrator 23.0.6, SVG Export Plug-In . SVG Version: 6.00 Build 0)  -->
<svg version="1.1" id="Layer_1" xmlns="http://www.w3.org/2000/svg" xmlns:xlink="http://www.w3.org/1999/xlink" x="0px" y="0px"
	 viewBox="0 0 1143.6 950" style="enable-background:new 0 0 1143.6 950;" xml:space="preserve">
<style type="text/css">
	.st0{fill:url(#SVGID_1_);}
	.st1{fill:url(#SVGID_2_);}
	.st2{enable-background:new    ;}
	.st3{fill:#808080;}
</style>
<title>liveciclelogo2</title>
<radialGradient id="SVGID_1_" cx="318" cy="634" r="318" gradientTransform="matrix(1 0 0 -1 0 952)" gradientUnits="userSpaceOnUse">
	<stop  offset="0.2" style="stop-color:#269CFF"/>
	<stop  offset="0.97" style="stop-color:#FFFFFF"/>
</radialGradient>
<circle class="st0" cx="318" cy="318" r="318"/>
<radialGradient id="SVGID_2_" cx="318" cy="634" r="200" gradientTransform="matrix(1 0 0 -1 0 952)" gradientUnits="userSpaceOnUse">
	<stop  offset="0.2" style="stop-color:#F2F2F2"/>
	<stop  offset="0.97" style="stop-color:#FFFFFF"/>
</radialGradient>
<circle class="st1" cx="318" cy="318" r="200"/>
<g>
	<g class="st2">
		<path class="st3" d="M294.5,354.4c-2.6,9-11.9,32.8-16.4,40.9H160l1.7-8.3c18.3-1.4,20.5-3.6,24-22.1l18.6-95.4
			c3.3-16.9,1.2-18.8-17.4-20.2l2.1-8.6h72.8l-1.7,8.6c-19.5,1.2-21.4,3.6-24.5,20.5L217.4,363c-3.3,18.1-1.9,21.9,11.9,21.9h12.1
			c10.2,0,17.9-1.2,25.5-8.1c5.7-5.5,14.3-16.7,19-25.5L294.5,354.4z"/>
	</g>
</g>
<g>
	<g class="st2">
		<path class="st3" d="M459.2,357.3c-3.3,11.4-9.5,28.6-13.1,35.9c-6.9,1.4-25.5,5.7-43.6,5.7c-56.9,0-85.9-37.8-85.9-79.5
			c0-48.6,36.9-82.1,90.2-82.1c20.5,0,37.1,4.3,45,5.5c1,10.7,2.6,25,4.5,36.9l-7.4,1.7c-4.8-15.9-10.5-25.7-22.6-30.7
			c-6.2-2.9-15.9-4.5-25-4.5c-39.3,0-60,29-60,68.3c0,45.9,23.8,75.4,62.4,75.4c24.3,0,36.2-11.2,48.3-35L459.2,357.3z"/>
	</g>
</g>
</svg>
