<?xml version="1.0" encoding="utf-8"?>
<!-- Generator: Adobe Illustrator 23.0.2, SVG Export Plug-In . SVG Version: 6.00 Build 0)  -->
<svg version="1.1" id="Layer_1" xmlns="http://www.w3.org/2000/svg" xmlns:xlink="http://www.w3.org/1999/xlink" x="0px" y="0px"
	 viewBox="0 0 64 64" style="enable-background:new 0 0 64 64;" xml:space="preserve">
<style type="text/css">
	.st0{opacity:0.84;fill:#2AFFEA;stroke:#000000;stroke-width:0.5;stroke-miterlimit:10;}
	.st1{fill:#2AFFEA;stroke:#000000;stroke-width:0.25;stroke-miterlimit:10;}
	.st2{fill:#FFFFFF;}
	.st3{fill:#1F1F1F;}
</style>
<ellipse class="st0" cx="32" cy="52.5" rx="30" ry="4"/>
<path class="st1" d="M16.1,18C17.5,30.9,32,36.8,32,52c0-15.2,14.5-21.1,15.9-34c0.98-8.78-5.35-16.69-14.13-17.67
	S17.08,5.67,16.1,14.46c-0.06,0.51-0.09,1.03-0.1,1.54C15.99,16.67,16.03,17.34,16.1,18z M32,12c2.21,0,4,1.79,4,4s-1.79,4-4,4
	s-4-1.79-4-4S29.79,12,32,12z"/>
<g>
	<g>
		<circle class="st2" cx="32" cy="15.95" r="10.67"/>
	</g>
	<g>
		<g>
			<path class="st3" d="M24.74,16.29c-0.03,0.15-0.2,0.66-0.25,0.82h-2.53v-0.14c0.5-0.04,0.54-0.07,0.54-0.49v-1.95
				c0-0.42-0.05-0.44-0.49-0.48v-0.14h1.46v0.14c-0.44,0.04-0.5,0.06-0.5,0.48v2c0,0.3,0.04,0.37,0.35,0.37
				c0.01,0,0.4,0.01,0.43,0.01c0.28,0,0.36-0.03,0.48-0.15c0.14-0.13,0.25-0.32,0.33-0.51L24.74,16.29z"/>
			<path class="st3" d="M25.03,17.1v-0.14c0.34-0.03,0.38-0.05,0.38-0.39v-1.01c0-0.3-0.02-0.32-0.34-0.37v-0.12
				c0.28-0.04,0.54-0.11,0.77-0.2c0,0.21,0,0.41,0,0.62v1.08c0,0.33,0.04,0.36,0.39,0.39v0.14H25.03z M25.6,14.4
				c-0.15,0-0.29-0.12-0.29-0.26c0-0.16,0.14-0.27,0.29-0.27c0.15,0,0.28,0.11,0.28,0.27C25.88,14.27,25.76,14.4,25.6,14.4z"/>
			<path class="st3" d="M28.91,15.08c-0.29,0.03-0.33,0.07-0.47,0.37c-0.18,0.39-0.49,1.05-0.77,1.71H27.5
				c-0.23-0.56-0.5-1.15-0.75-1.72c-0.13-0.29-0.17-0.31-0.45-0.35v-0.13h1.11v0.13c-0.3,0.03-0.31,0.07-0.22,0.28
				c0.14,0.34,0.37,0.86,0.52,1.2c0.2-0.44,0.38-0.84,0.5-1.15c0.09-0.24,0.08-0.29-0.28-0.33v-0.13h0.99V15.08z"/>
			<path class="st3" d="M30.98,16.69c-0.35,0.39-0.73,0.48-0.9,0.48c-0.67,0-1.07-0.49-1.07-1.06c0-0.33,0.13-0.64,0.35-0.86
				c0.23-0.23,0.53-0.36,0.81-0.36c0.47,0,0.83,0.37,0.83,0.76c-0.01,0.1-0.02,0.14-0.11,0.16c-0.11,0.02-0.81,0.06-1.45,0.08
				c-0.02,0.66,0.43,0.93,0.82,0.93c0.22,0,0.43-0.08,0.63-0.25L30.98,16.69z M30.04,15.07c-0.25,0-0.5,0.21-0.57,0.61
				c0.31,0,0.61,0,0.93-0.01c0.1,0,0.13-0.02,0.13-0.1C30.54,15.31,30.35,15.07,30.04,15.07z"/>
			<path class="st3" d="M34.67,16.32c-0.08,0.24-0.22,0.59-0.3,0.74c-0.16,0.03-0.58,0.12-1,0.12c-1.3,0-1.97-0.78-1.97-1.64
				c0-1,0.84-1.7,2.06-1.7c0.47,0,0.85,0.09,1.03,0.11c0.02,0.22,0.06,0.52,0.1,0.76l-0.17,0.03c-0.11-0.33-0.24-0.53-0.52-0.63
				c-0.14-0.06-0.37-0.09-0.57-0.09c-0.9,0-1.37,0.6-1.37,1.41c0,0.95,0.54,1.56,1.43,1.56c0.55,0,0.83-0.23,1.11-0.72L34.67,16.32z
				"/>
			<path class="st3" d="M35.08,17.1v-0.14c0.34-0.03,0.38-0.05,0.38-0.39v-1.01c0-0.3-0.02-0.32-0.34-0.37v-0.12
				c0.28-0.04,0.54-0.11,0.77-0.2c0,0.21,0,0.41,0,0.62v1.08c0,0.33,0.04,0.36,0.39,0.39v0.14H35.08z M35.65,14.4
				c-0.15,0-0.29-0.12-0.29-0.26c0-0.16,0.14-0.27,0.29-0.27c0.15,0,0.28,0.11,0.28,0.27C35.93,14.27,35.81,14.4,35.65,14.4z"/>
			<path class="st3" d="M38.63,16.66c-0.24,0.29-0.61,0.5-0.93,0.5c-0.69,0-1.1-0.51-1.1-1.03c0-0.39,0.19-0.71,0.55-0.96
				c0.29-0.2,0.62-0.28,0.83-0.28c0.25,0,0.42,0.07,0.51,0.13c0.08,0.05,0.09,0.09,0.09,0.14c0,0.12-0.14,0.22-0.2,0.22
				c-0.03,0-0.05-0.01-0.1-0.05c-0.17-0.14-0.35-0.21-0.55-0.21c-0.36,0-0.68,0.27-0.68,0.79c0,0.68,0.51,0.91,0.83,0.91
				c0.23,0,0.41-0.05,0.67-0.27L38.63,16.66z"/>
			<path class="st3" d="M38.82,17.1v-0.14c0.35-0.03,0.39-0.05,0.39-0.38v-2.35c0-0.3-0.03-0.33-0.38-0.37v-0.13
				c0.29-0.03,0.63-0.11,0.81-0.17c0,0.23,0,0.47,0,0.7v2.32c0,0.32,0.03,0.35,0.39,0.38v0.14H38.82z"/>
			<path class="st3" d="M42.32,16.69c-0.35,0.39-0.73,0.48-0.9,0.48c-0.66,0-1.07-0.49-1.07-1.06c0-0.33,0.13-0.64,0.35-0.86
				c0.23-0.23,0.53-0.36,0.81-0.36c0.47,0,0.83,0.37,0.83,0.76c0,0.1-0.02,0.14-0.11,0.16c-0.11,0.02-0.81,0.06-1.46,0.08
				c-0.02,0.66,0.43,0.93,0.82,0.93c0.22,0,0.43-0.08,0.63-0.25L42.32,16.69z M41.38,15.07c-0.25,0-0.5,0.21-0.57,0.61
				c0.3,0,0.61,0,0.93-0.01c0.1,0,0.13-0.02,0.13-0.1C41.88,15.31,41.69,15.07,41.38,15.07z"/>
		</g>
	</g>
</g>
</svg>
